<mxfile host="app.diagrams.net" modified="2024-09-15T16:09:23.684Z" agent="Mozilla/5.0 (Macintosh; Intel Mac OS X 10_15_7) AppleWebKit/537.36 (KHTML, like Gecko) Chrome/128.0.0.0 Safari/537.36" version="24.5.4" etag="1luKZbFh0K60eZsZkbFf" type="github">
  <diagram name="第 1 页" id="lS_z6TXRfF70z6yuBqkE">
    <mxGraphModel>
      <root>
        <mxCell id="0" />
        <mxCell id="1" parent="0" />
      </root>
    </mxGraphModel>
  </diagram>
</mxfile>
